<?xml version="1.0" encoding="iso-8859-1"?>
<!-- Generator: Adobe Illustrator 19.0.0, SVG Export Plug-In . SVG Version: 6.00 Build 0)  -->
<svg version="1.1" id="Capa_1" xmlns="http://www.w3.org/2000/svg" xmlns:xlink="http://www.w3.org/1999/xlink" x="0px" y="0px"
	 viewBox="0 0 512 512" style="enable-background:new 0 0 512 512;" xml:space="preserve">
<path style="fill:#EBEBEB;" d="M355.797,425.22L355.797,425.22c-14.379,0-26.034-11.654-26.034-26.034v-12.149l-208.271-83.308
	V182.237l208.271-83.308V86.78c0-14.379,11.654-26.034,26.034-26.034l0,0c14.379,0,26.034,11.655,26.034,26.034v312.407
	C381.831,413.566,370.176,425.22,355.797,425.22z"/>
<path style="fill:#4398D1;" d="M60.746,182.237h60.746l0,0v121.492l0,0H60.746C27.197,303.729,0,276.532,0,242.983l0,0
	C0,209.434,27.197,182.237,60.746,182.237z"/>
<polygon style="fill:#E0E0E0;" points="433.898,269.017 381.831,286.373 381.831,199.593 433.898,216.949 "/>
<path style="fill:#EBEBEB;" d="M151.951,438.671L86.78,451.254L52.068,303.729h69.424l26.034,104.136l10.414,10.414
	c4.712,4.773,4.669,12.462-0.104,17.182C156.212,437.057,154.173,438.177,151.951,438.671z"/>
<g>
	<rect x="459.932" y="234.305" style="fill:#4398D1;" width="52.068" height="17.356"/>
	
		<rect x="456.309" y="143.171" transform="matrix(-0.8574 0.5146 -0.5146 -0.8574 972.6862 34.2063)" style="fill:#4398D1;" width="50.591" height="17.355"/>
	
		<rect x="472.901" y="308.804" transform="matrix(-0.5144 0.8575 -0.8575 -0.5144 1015.8151 92.9954)" style="fill:#4398D1;" width="17.355" height="50.59"/>
</g>
<g>
	<rect x="78.102" y="208.271" style="fill:#126099;" width="17.356" height="34.712"/>
	<rect x="43.39" y="208.271" style="fill:#126099;" width="17.356" height="34.712"/>
</g>
<path style="fill:#E0E0E0;" d="M329.763,181.196c-29.618,62.638-76.878,115.269-135.984,151.431l135.984,54.411V181.196z"/>
<path style="fill:#4398D1;" d="M355.797,60.746L355.797,60.746c14.379,0,26.034,11.655,26.034,26.034v312.407
	c0,14.379-11.654,26.034-26.034,26.034l0,0c-14.379,0-26.034-11.654-26.034-26.034V86.78
	C329.763,72.4,341.417,60.746,355.797,60.746z"/>
<g>
</g>
<g>
</g>
<g>
</g>
<g>
</g>
<g>
</g>
<g>
</g>
<g>
</g>
<g>
</g>
<g>
</g>
<g>
</g>
<g>
</g>
<g>
</g>
<g>
</g>
<g>
</g>
<g>
</g>
</svg>
