<svg id="letters" enable-background="new 0 0 300 300" height="512" viewBox="0 0 300 300" width="512" xmlns="http://www.w3.org/2000/svg"><g><circle cx="122" cy="134" fill="#ffded5" r="90"/><g fill="#4c241d"><path d="m98 64c-7.719 0-14-6.281-14-14s6.281-14 14-14 14 6.281 14 14-6.281 14-14 14zm0-20c-3.309 0-6 2.691-6 6s2.691 6 6 6 6-2.691 6-6-2.691-6-6-6z"/><path d="m96 116c-2.211 0-4-1.791-4-4v-8c0-2.209 1.789-4 4-4s4 1.791 4 4v8c0 2.209-1.789 4-4 4z"/><path d="m96 140c-2.211 0-4-1.791-4-4v-8c0-2.209 1.789-4 4-4s4 1.791 4 4v8c0 2.209-1.789 4-4 4z"/><path d="m88 124h-8c-2.211 0-4-1.791-4-4s1.789-4 4-4h8c2.211 0 4 1.791 4 4s-1.789 4-4 4z"/><path d="m112 124h-8c-2.211 0-4-1.791-4-4s1.789-4 4-4h8c2.211 0 4 1.791 4 4s-1.789 4-4 4z"/><circle cx="58.96" cy="75.948" r="4.276"/><circle cx="42.96" cy="123.948" r="4.276"/></g><g><path d="m149.413 260h-70.826c-8.056 0-14.587-6.531-14.587-14.587v-70.825c0-8.057 6.531-14.588 14.587-14.588h70.825c8.056 0 14.587 6.531 14.587 14.587v70.825c.001 8.057-6.53 14.588-14.586 14.588z" fill="#fc8c29"/><path d="m149.414 264h-70.828c-10.25 0-18.586-8.338-18.586-18.588v-70.824c0-10.25 8.336-18.588 18.586-18.588h70.828c10.25 0 18.586 8.338 18.586 18.588v70.824c0 10.25-8.336 18.588-18.586 18.588zm-70.828-100c-5.836 0-10.586 4.75-10.586 10.588v70.824c0 5.838 4.75 10.588 10.586 10.588h70.828c5.836 0 10.586-4.75 10.586-10.588v-70.824c0-5.838-4.75-10.588-10.586-10.588z" fill="#4c241d"/></g><g><path d="m249.413 260h-70.825c-8.056 0-14.587-6.531-14.587-14.587v-70.825c0-8.056 6.531-14.587 14.587-14.587h70.825c8.056 0 14.587 6.531 14.587 14.587v70.825c0 8.056-6.531 14.587-14.587 14.587z" fill="#ffce56"/><path d="m249.414 264h-70.828c-10.25 0-18.586-8.338-18.586-18.588v-70.824c0-10.25 8.336-18.588 18.586-18.588h70.828c10.25 0 18.586 8.338 18.586 18.588v70.824c0 10.25-8.336 18.588-18.586 18.588zm-70.828-100c-5.836 0-10.586 4.75-10.586 10.588v70.824c0 5.838 4.75 10.588 10.586 10.588h70.828c5.836 0 10.586-4.75 10.586-10.588v-70.824c0-5.838-4.75-10.588-10.586-10.588z" fill="#4c241d"/></g><g><path d="m225.413 160h-70.825c-8.056 0-14.587-6.531-14.587-14.587v-70.826c-.001-8.056 6.53-14.587 14.586-14.587h70.825c8.057 0 14.588 6.531 14.588 14.587v70.825c0 8.057-6.531 14.588-14.587 14.588z" fill="#a9ba5a"/><path d="m225.414 164h-70.828c-10.25 0-18.586-8.338-18.586-18.588v-70.824c0-10.25 8.336-18.588 18.586-18.588h70.828c10.25 0 18.586 8.338 18.586 18.588v70.824c0 10.25-8.336 18.588-18.586 18.588zm-70.828-100c-5.836 0-10.586 4.75-10.586 10.588v70.824c0 5.838 4.75 10.588 10.586 10.588h70.828c5.836 0 10.586-4.75 10.586-10.588v-70.824c0-5.838-4.75-10.588-10.586-10.588z" fill="#4c241d"/></g><path d="m118 212h-22c-2.211 0-4-1.791-4-4v-28c0-2.209 1.789-4 4-4h22c9.926 0 18 8.074 18 18s-8.074 18-18 18zm-18-8h18c5.516 0 10-4.486 10-10s-4.484-10-10-10h-18z" fill="#4c241d"/><path d="m122 244h-26c-2.211 0-4-1.791-4-4v-32c0-2.209 1.789-4 4-4h26c9.926 0 18 8.074 18 18v4c0 9.926-8.074 18-18 18zm-22-8h22c5.516 0 10-4.486 10-10v-4c0-5.514-4.484-10-10-10h-22z" fill="#4c241d"/><path d="m228 244h-13.188c-14.785 0-26.812-12.027-26.812-26.812v-14.375c0-14.786 12.027-26.813 26.812-26.813h13.188c2.211 0 4 1.791 4 4s-1.789 4-4 4h-13.188c-10.374 0-18.812 8.439-18.812 18.812v14.375c0 10.373 8.438 18.812 18.812 18.812h13.188c2.211 0 4 1.791 4 4s-1.789 4.001-4 4.001z" fill="#4c241d"/><path d="m216 144.002c-1.676 0-3.234-1.061-3.793-2.736l-19.09-57.266h-2.234l-19.09 57.266c-.699 2.094-2.941 3.23-5.059 2.529-2.094-.699-3.227-2.965-2.527-5.061l20-60c.543-1.632 2.07-2.734 3.793-2.734h8c1.723 0 3.25 1.102 3.793 2.734l20 60c.699 2.096-.434 4.361-2.527 5.061-.422.141-.848.207-1.266.207z" fill="#4c241d"/><path d="m204 116h-24c-2.211 0-4-1.791-4-4s1.789-4 4-4h24c2.211 0 4 1.791 4 4s-1.789 4-4 4z" fill="#4c241d"/></g></svg>